{
  "accessors": [
    {
      "bufferView": 2,
      "componentType": 5126,
      "count": 6862,
      "max": [
        796.013916015625,
        609.3270874023438,
        864.2977294921875
      ],
      "min": [
        -784.2166137695313,
        -508.8389892578125,
        -773.1644897460938
      ],
      "type": "VEC3"
    },
    {
      "bufferView": 2,
      "byteOffset": 82344,
      "componentType": 5126,
      "count": 6862,
      "max": [
        1.0,
        1.0,
        1.0
      ],
      "min": [
        -1.0,
        -1.0,
        -1.0
      ],
      "type": "VEC3"
    },
    {
      "bufferView": 3,
      "componentType": 5126,
      "count": 6862,
      "max": [
        1.0,
        1.0,
        1.0,
        1.0
      ],
      "min": [
        -1.0,
        -1.0,
        -1.0,
        -1.0
      ],
      "type": "VEC4"
    },
    {
      "bufferView": 1,
      "componentType": 5126,
      "count": 6862,
      "max": [
        0.98974609375,
        0.9982471466064453
      ],
      "min": [
        0.0004792213439941406,
        0.001953125
      ],
      "type": "VEC2"
    },
    {
      "bufferView": 1,
      "byteOffset": 54896,
      "componentType": 5126,
      "count": 6862,
      "max": [
        0.98974609375,
        0.9982471466064453
      ],
      "min": [
        0.0004792213439941406,
        0.001953125
      ],
      "type": "VEC2"
    },
    {
      "bufferView": 0,
      "componentType": 5125,
      "count": 10620,
      "type": "SCALAR"
    }
  ],
  "asset": {
    "extras": {
      "author": "Rex (https://sketchfab.com/rex_7)",
      "license": "CC-BY-4.0 (http://creativecommons.org/licenses/by/4.0/)",
      "source": "https://sketchfab.com/3d-models/pubg-mobile-erangle-house-5ef3c170c3cb40e3aefa7eced318944c",
      "title": "PUBG Mobile Erangle House"
    },
    "generator": "Sketchfab-14.23.0",
    "version": "2.0"
  },
  "bufferViews": [
    {
      "buffer": 0,
      "byteLength": 42480,
      "name": "floatBufferViews",
      "target": 34963
    },
    {
      "buffer": 0,
      "byteLength": 109792,
      "byteOffset": 42480,
      "byteStride": 8,
      "name": "floatBufferViews",
      "target": 34962
    },
    {
      "buffer": 0,
      "byteLength": 164688,
      "byteOffset": 152272,
      "byteStride": 12,
      "name": "floatBufferViews",
      "target": 34962
    },
    {
      "buffer": 0,
      "byteLength": 109792,
      "byteOffset": 316960,
      "byteStride": 16,
      "name": "floatBufferViews",
      "target": 34962
    }
  ],
  "buffers": [
    {
      "byteLength": 426752,
      "uri": "scene.bin"
    }
  ],
  "images": [
    {
      "uri": "textures/HouseT3_baseColor.png"
    },
    {
      "uri": "textures/HouseT3_normal.png"
    }
  ],
  "materials": [
    {
      "doubleSided": true,
      "name": "HouseT3",
      "normalTexture": {
        "index": 1
      },
      "pbrMetallicRoughness": {
        "baseColorTexture": {
          "index": 0
        },
        "metallicFactor": 0.0,
        "roughnessFactor": 0.7360022430544549
      }
    }
  ],
  "meshes": [
    {
      "name": "d.001_HouseT3_0",
      "primitives": [
        {
          "attributes": {
            "NORMAL": 1,
            "POSITION": 0,
            "TANGENT": 2,
            "TEXCOORD_0": 3,
            "TEXCOORD_1": 4
          },
          "indices": 5,
          "material": 0,
          "mode": 4
        }
      ]
    }
  ],
  "nodes": [
    {
      "children": [
        1
      ],
      "matrix": [
        1.0,
        0.0,
        0.0,
        0.0,
        0.0,
        2.220446049250313e-16,
        -1.0,
        0.0,
        0.0,
        1.0,
        2.220446049250313e-16,
        0.0,
        0.0,
        0.0,
        0.0,
        1.0
      ],
      "name": "Sketchfab_model"
    },
    {
      "children": [
        2
      ],
      "matrix": [
        0.009999999776482582,
        0.0,
        0.0,
        0.0,
        0.0,
        0.0,
        0.009999999776482582,
        0.0,
        0.0,
        -0.009999999776482582,
        0.0,
        0.0,
        0.0,
        0.0,
        0.0,
        1.0
      ],
      "name": "37fd8569fed8426babfefdeb7cc8a295.fbx"
    },
    {
      "children": [
        3
      ],
      "name": "RootNode"
    },
    {
      "children": [
        4
      ],
      "matrix": [
        0.5886612931919557,
        3.8227846385805456e-08,
        -0.8083797144215623,
        -0.0,
        0.8083797144215632,
        -2.3001466803582816e-08,
        0.5886612931919553,
        -0.0,
        -3.909334966856193e-09,
        0.9999999999999989,
        4.444269396941536e-08,
        -0.0,
        1351.8516845703125,
        568.4654541015625,
        -1634.7391357421875,
        1.0
      ],
      "name": "d.001"
    },
    {
      "mesh": 0,
      "name": "d.001_HouseT3_0"
    }
  ],
  "samplers": [
    {
      "magFilter": 9729,
      "minFilter": 9987,
      "wrapS": 10497,
      "wrapT": 10497
    }
  ],
  "scene": 0,
  "scenes": [
    {
      "name": "Sketchfab_Scene",
      "nodes": [
        0
      ]
    }
  ],
  "textures": [
    {
      "sampler": 0,
      "source": 0
    },
    {
      "sampler": 0,
      "source": 1
    }
  ]
}
